<?xml version="1.0" encoding="UTF-8" standalone="no"?> <svg width="64" height="64" viewBox="0 0 64 64" fill="none" xmlns="http://www.w3.org/2000/svg">
<path d="M59.6599 4.86013C59.4715 4.67056 59.247 4.52067 58.9996 4.41934C58.7523 4.318 58.4872 4.26727 58.2199 4.27013L32.0999 4.63013C31.5773 4.63761 31.0783 4.84939 30.7099 5.22013L2.75991 33.2201C2.57396 33.4059 2.42644 33.6265 2.32579 33.8693C2.22515 34.112 2.17334 34.3723 2.17334 34.6351C2.17334 34.898 2.22515 35.1582 2.32579 35.401C2.42644 35.6438 2.57396 35.8644 2.75991 36.0501L28.5199 61.7701C28.8946 62.1426 29.4015 62.3517 29.9299 62.3517C30.4583 62.3517 30.9652 62.1426 31.3399 61.7701L59.3399 33.7701C59.7107 33.4017 59.9224 32.9028 59.9299 32.3801L60.2499 6.30013C60.2528 6.03286 60.202 5.76773 60.1007 5.5204C59.9994 5.27307 59.8495 5.04856 59.6599 4.86013ZM49.8199 25.6301C49.102 26.3486 48.2491 26.9181 47.3104 27.3059C46.3717 27.6938 45.3656 27.8923 44.3499 27.8901C37.6299 28.0001 33.9999 19.4201 38.8899 14.7001C46.3799 7.72013 56.8099 18.1601 49.8199 25.6301Z" fill="black"/>
</svg>
