<svg xmlns="http://www.w3.org/2000/svg" xml:space="preserve" width="2.33333in" height="2.33333in" style="shape-rendering:geometricPrecision; text-rendering:geometricPrecision; image-rendering:optimizeQuality; fill-rule:evenodd; clip-rule:evenodd" viewBox="0 0 2.33333 2.33333" xmlns:xlink="http://www.w3.org/1999/xlink">
 <defs>
  <style type="text/css">
   
    .fil0 {fill:#022A32}
   
  </style>
 </defs>
 <g id="Layer_x0020_1">
  <metadata id="CorelCorpID_0Corel-Layer"></metadata>
  <path class="fil0" d="M1.78195 2.01984c-0.0637795,0 -0.123575,-0.0246772 -0.168386,-0.0695l-0.446902 -0.44687 -0.446886 0.446886c-0.0448268,0.0448307 -0.104626,0.0695 -0.168406,0.0695 -0.0637795,0 -0.123591,-0.0246772 -0.168402,-0.0695 -0.0928465,-0.0928583 -0.0928465,-0.243941 0,-0.336803l0.446902 -0.446886 -0.446902 -0.446886c-0.044811,-0.0448268 -0.0695,-0.104634 -0.0695,-0.168402 0,-0.0637717 0.024689,-0.123575 0.0695,-0.168402 0.044811,-0.044815 0.104622,-0.0695 0.168386,-0.0695 0.0637795,0 0.123594,0.024685 0.168406,0.0695l0.446902 0.446886 0.446894 -0.446886c0.044811,-0.044815 0.10461,-0.0695 0.168406,-0.0695 0.0637795,0 0.123575,0.024685 0.168386,0.0695 0.0928622,0.0928583 0.0928622,0.243933 0,0.336787l-0.446882 0.446902 0.446886 0.446886c0.0928622,0.0928622 0.0928622,0.243945 0,0.336803 -0.0448268,0.044815 -0.104638,0.0694843 -0.168402,0.0694843z" id="id_102" style="fill: rgb(0, 0, 0);"></path>
 </g>
</svg>