<?xml version="1.0" encoding="utf-8"?>
<!-- Generator: Adobe Illustrator 27.0.0, SVG Export Plug-In . SVG Version: 6.00 Build 0)  -->
<svg version="1.1" id="Layer_1" xmlns="http://www.w3.org/2000/svg" xmlns:xlink="http://www.w3.org/1999/xlink" x="0px" y="0px"
	 viewBox="0 0 100 100" enable-background="new 0 0 100 100" xml:space="preserve">
<path d="M16.29,57.12l-9.92,5.73l10.7,18.53l9.92-5.73c0.37-0.21,0.83-0.17,1.15,0.1c3.13,2.66,6.67,4.71,10.51,6.08
	c0.4,0.14,0.66,0.52,0.66,0.94v11.44H60.7V82.76c0-0.42,0.27-0.8,0.66-0.94c3.84-1.37,7.38-3.42,10.51-6.08
	c0.32-0.27,0.78-0.32,1.15-0.1l9.92,5.73l10.7-18.53l-9.92-5.73c-0.37-0.21-0.56-0.63-0.48-1.04C83.6,54.04,83.79,52,83.79,50
	s-0.19-4.04-0.55-6.07c-0.08-0.42,0.12-0.83,0.48-1.04l9.92-5.73l-10.7-18.53l-9.92,5.73c-0.37,0.21-0.83,0.17-1.15-0.1
	c-3.13-2.66-6.67-4.71-10.51-6.08c-0.4-0.14-0.66-0.52-0.66-0.94V5.79H39.3v11.44c0,0.42-0.27,0.8-0.66,0.94
	c-3.84,1.37-7.38,3.42-10.51,6.08c-0.32,0.27-0.78,0.31-1.15,0.1l-9.92-5.73L6.37,37.16l9.92,5.73c0.37,0.21,0.56,0.63,0.48,1.04
	C16.4,45.96,16.21,48,16.21,50s0.19,4.04,0.55,6.07C16.84,56.49,16.65,56.9,16.29,57.12z M50,30.57c10.71,0,19.43,8.72,19.43,19.43
	S60.71,69.43,50,69.43S30.57,60.71,30.57,50S39.29,30.57,50,30.57z"/>
</svg>
