<?xml version="1.0" encoding="UTF-8"?>
<!DOCTYPE svg PUBLIC "-//W3C//DTD SVG 1.1//EN" "http://www.w3.org/Graphics/SVG/1.1/DTD/svg11.dtd">
<!-- Creator: CorelDRAW -->
<svg xmlns="http://www.w3.org/2000/svg" xml:space="preserve" width="1.70666in" height="1.70666in" version="1.1" style="shape-rendering:geometricPrecision; text-rendering:geometricPrecision; image-rendering:optimizeQuality; fill-rule:evenodd; clip-rule:evenodd"
viewBox="0 0 1707 1707"
 xmlns:xlink="http://www.w3.org/1999/xlink">
 <defs>
  <style type="text/css">
   <![CDATA[
    .fil0 {fill:#000002}
   ]]>
  </style>
 </defs>
 <g id="Layer_x0020_1">
  <metadata id="CorelCorpID_0Corel-Layer"/>
  <path class="fil0" d="M854 873c-101,0 -182,-82 -182,-183l0 -59c0,-13 10,-23 23,-23 13,0 23,10 23,23l0 59c0,75 61,136 136,136 75,0 136,-61 136,-136l0 -58c0,-13 10,-24 23,-24 13,0 24,11 24,24l0 58c0,101 -82,183 -183,183z"/>
  <path class="fil0" d="M1256 1395l-143 0 0 -202c0,-7 -6,-13 -14,-13 -7,0 -13,6 -13,13l0 202 -465 0 0 -202c0,-7 -6,-13 -14,-13 -7,0 -13,6 -13,13l0 202 -143 0c-13,0 -23,-10 -23,-23l0 -227c0,-138 112,-251 250,-251l47 0c8,0 15,4 19,10l109 144 110 -144c4,-6 11,-10 18,-10l48 0c138,0 250,113 250,251l0 227c0,13 -10,23 -23,23z"/>
  <path class="fil0" d="M981 948c-11,0 -20,-6 -26,-15l-47 -82c-8,-15 -4,-33 11,-41 14,-9 32,-4 41,11l47 82c8,14 3,32 -11,41 -4,2 -10,4 -15,4zm-256 0c-5,0 -10,-2 -15,-4 -14,-9 -19,-27 -10,-41l49 -82c8,-14 26,-19 41,-11 14,8 19,27 11,41l-50 82c-5,9 -15,15 -26,15z"/>
  <g id="_571250632">
   <path class="fil0" d="M981 941c-8,0 -16,-4 -20,-12l-51 -88c-6,-11 -2,-25 9,-31 11,-7 25,-3 32,8l50 88c7,11 3,25 -8,32 -4,2 -8,3 -12,3z"/>
   <path class="fil0" d="M725 941c-4,0 -8,-1 -11,-3 -11,-7 -15,-21 -9,-32l51 -88c7,-12 21,-15 32,-9 11,6 15,21 9,32l-51 88c-5,8 -13,12 -21,12z"/>
  </g>
  <path class="fil0" d="M679 649l0 -1 0 0 0 0 0 0c-2,-1 -3,-3 -4,-4 -41,-62 -55,-118 -40,-166 13,-47 49,-72 66,-81 26,-52 84,-86 152,-86 0,0 0,0 0,0 67,0 126,33 151,86 18,9 55,34 69,82 14,47 1,102 -39,162 -3,8 -10,13 -19,14 -1,0 -1,0 -2,0 -12,0 -22,-9 -23,-22 -7,-104 -89,-113 -123,-112 -70,2 -147,48 -149,110 0,7 -3,15 -10,20 -4,2 -8,3 -12,4l0 0 0 0 -1 0 0 0c-6,0 -12,-3 -16,-6z"/>
  <path class="fil0" d="M1391 1017c-76,0 -138,-63 -138,-139l0 -43c0,-13 10,-23 23,-23 13,0 23,10 23,23l0 43c0,51 42,92 92,92 51,0 92,-41 92,-92l0 -42c0,-13 11,-24 24,-24 13,0 23,11 23,24l0 42c0,76 -62,139 -139,139z"/>
  <path class="fil0" d="M1683 1395l-383 0c4,-7 6,-14 6,-23l0 -227c0,-45 -11,-88 -30,-126l22 0c8,0 14,4 19,10l74 98 74 -98c4,-6 11,-10 19,-10l34 0c104,0 188,85 188,188l0 165c0,13 -11,23 -23,23z"/>
  <path class="fil0" d="M1484 1066c-8,0 -16,-4 -21,-12l-36 -63c-7,-11 -3,-26 8,-32 11,-7 26,-3 32,8l37 64c6,11 2,26 -9,32 -3,2 -7,3 -11,3z"/>
  <path class="fil0" d="M1298 1066c-1,0 -2,0 -4,0 -4,-13 -8,-26 -14,-38l35 -61c7,-11 21,-15 32,-9 11,7 15,21 8,32l-37 64c-4,8 -12,12 -20,12z"/>
  <path class="fil0" d="M1276 859l0 0 0 0 0 0 0 0 0 0 0 0 -1 0 0 0 0 0 0 0 0 0 -1 -1 0 0 0 0 0 0c-8,0 -14,-5 -18,-11 -31,-46 -41,-88 -30,-125 10,-34 36,-53 50,-61 20,-39 64,-64 114,-64 51,0 95,25 115,64 14,8 41,27 51,62 11,36 1,78 -28,123 -4,7 -11,12 -20,13 0,0 -1,0 -1,0 -12,0 -23,-10 -23,-22 -5,-70 -60,-76 -83,-75 -47,1 -100,31 -102,72 1,8 -3,16 -10,21 -2,1 -3,2 -5,2l0 0 -1 1 0 0 0 0 -1 0 0 0 -1 0 0 0c-1,0 -3,1 -5,1z"/>
  <path class="fil0" d="M316 1017c-76,0 -138,-63 -138,-139l0 -43c0,-13 10,-23 23,-23 13,0 23,10 23,23l0 43c0,51 42,92 92,92 51,0 92,-41 92,-92l0 -42c0,-13 11,-24 24,-24 13,0 23,11 23,24l0 42c0,76 -62,139 -139,139z"/>
  <path class="fil0" d="M407 1395l-383 0c-13,0 -23,-10 -23,-23l0 -165c0,-103 84,-188 188,-188l34 0c7,0 14,4 19,10l74 98 74 -98c4,-6 11,-10 18,-10l23 0c-19,38 -30,81 -30,126l0 227c0,9 2,16 6,23z"/>
  <g id="_571281232">
   <path class="fil0" d="M408 1066c-8,0 -15,-4 -20,-12l-26 -45 1 0 2 -1 0 0 1 -1 2 0 1 -1 1 0 1 -1 1 0 0 0 2 -1 1 0 1 -1 2 -1 0 0 2 -1 1 0 0 -1 2 -1 1 0 1 0 1 -1 1 -1 0 0c2,-1 4,-2 5,-3l1 0 2 -2 0 0 1 0 2 -2 0 0c1,-1 2,-1 2,-2l1 0 2 -2 24 42c-6,12 -11,25 -15,38 -1,0 -2,0 -4,0zm-49 -107l1 0c1,0 1,-1 2,-1l0 0 0 0 0 0 0 0 0 0 0 0 0 0 0 0 0 0 -1 0 0 0 0 0 0 0 0 0 0 0 0 0 0 0 0 0 0 0 0 0 0 0 0 0 0 0 0 0 0 1 0 0 0 0 0 0 0 0 0 0 0 0 -1 0 0 0 0 0 0 0 -1 0 0 0 0 0 0 0 0 0 0 0 0 0 0 0 0 0z"/>
   <path class="fil0" d="M223 1066c-4,0 -8,-1 -12,-3 -11,-6 -14,-21 -8,-32l26 -45 1 0c0,1 1,1 2,2l1 0 1 2 1 0 0 1 2 0 0 1 1 0 0 0 2 1 0 1c1,0 2,1 3,1l0 1 2 1 1 0 0 1 2 1 1 0 1 1c1,0 3,1 4,2l1 0c1,1 2,1 3,2l0 0c2,1 4,1 6,2l0 0 3 2 1 0 2 1 -27 45c-4,8 -12,12 -20,12zm47 -108l0 0c1,0 1,0 2,0l1 1 0 0 0 0 0 0 0 0 0 0 0 0 0 0 -1 0 0 0 0 0 0 0 0 0 0 0 0 0 0 0 0 0 0 0 0 0 0 0 0 0 0 0 0 0 0 0 0 0 0 0 0 -1 0 0 0 0 0 0 0 0 0 0 -1 0 0 0 0 0 0 0 0 0 0 0 0 0 0 0 0 0 0 0 0 0 0 0 0 0 0 0 0 0 0 0 0 0 -1 0 0 0 0 0 0 0 0 0 0 0 0 0 0 0 0 0z"/>
  </g>
  <path class="fil0" d="M201 859l0 0 0 0 0 0 0 0 0 0 -1 0 0 0 0 0 0 0 -1 -1 -1 0c-2,0 -4,0 -6,-1l0 0 -1 0 0 -1 0 0 0 0 -1 0 0 0 0 0 0 0 0 0 -1 0 0 -1 0 0 0 0 0 0 0 0 -1 0 0 0c-2,-2 -5,-4 -6,-7 -32,-46 -42,-89 -31,-126 10,-34 36,-53 49,-61 21,-39 65,-64 115,-64 51,0 95,25 115,64 14,8 41,27 51,62 11,36 1,77 -28,123 -4,7 -11,12 -20,13 0,0 -1,0 -1,0 -12,0 -22,-9 -23,-21l-1 0c0,-1 0,-1 0,-2 -5,-69 -59,-75 -82,-74 -48,1 -101,32 -102,74l0 0 0 0 0 0c0,12 -9,21 -19,22l0 0 -1 0 0 0 0 0 0 0 0 0 0 0 -1 0 0 0 0 0 0 0 0 0 0 0 0 0 -1 1 0 0 0 0 0 0 0 0 0 0 0 0 -1 0 0 0 0 0 0 0z"/>
 </g>
</svg>
